<?xml version="1.0" encoding="UTF-8"?>
<svg id="Layer_1" xmlns="http://www.w3.org/2000/svg" version="1.1" viewBox="0 0 210 210">
  <!-- Generator: Adobe Illustrator 29.3.1, SVG Export Plug-In . SVG Version: 2.1.0 Build 151)  -->
  <defs>
    <style>
      .st0 {
        fill: #0e0048;
      }

      .st1 {
        fill: #93b9e7;
      }
    </style>
  </defs>
  <rect class="st1" width="210" height="210" rx="32" ry="32"/>
  <path class="st0" d="M55,117.4c-27.6,0-50,19.6-50,43.8s22.4,43.8,50,43.8h100c27.6,0,50-19.6,50-43.8s-22.4-43.8-50-43.8H55ZM155,192.4c-19.7,0-35.7-14-35.7-31.2s16-31.2,35.7-31.2,35.7,14,35.7,31.2-16,31.2-35.7,31.2M55,17.4c-19.7,0-35.7,14-35.7,31.2s16,31.2,35.7,31.2,35.7-14,35.7-31.2-16-31.2-35.7-31.2M90,17.4c9.6,8.2,15,19.5,15,31.2s-5.4,23-15,31.2h65c19.7,0,35.7-14,35.7-31.2s-16-31.2-35.7-31.2c0,0-65,0-65,0ZM55,4.9h100c27.6,0,50,19.6,50,43.8s-22.4,43.8-50,43.8H55c-27.6,0-50-19.6-50-43.8S27.4,4.9,55,4.9"/>
</svg>